<?xml version="1.0" encoding="utf-8"?>
<!-- Generator: Adobe Illustrator 19.0.0, SVG Export Plug-In . SVG Version: 6.00 Build 0)  -->
<svg version="1.1" id="Layer_1" xmlns="http://www.w3.org/2000/svg" xmlns:xlink="http://www.w3.org/1999/xlink" x="0px" y="0px"
	 viewBox="-747 748.6 504.4 504.4" style="enable-background:new -747 748.6 504.4 504.4;" xml:space="preserve">
<style type="text/css">
	.st0{fill:#0F0A0A;}
</style>
<g>
	<g>
		<path class="st0" d="M-551.8,932.8h-7.2h-48v44h51.6c9.2,0,17.2-2.4,17.2-23.6C-538.2,932-551.8,932.8-551.8,932.8z"/>
	</g>
</g>
<g>
	<g>
		<path class="st0" d="M-551.8,1008.8H-607v56h48.4c0.8,0,2,0,3.6,0c8,0,23.2-3.2,23.2-27.2
			C-531.4,1009.2-551.8,1008.8-551.8,1008.8z"/>
	</g>
</g>
<g>
	<g>
		<path class="st0" d="M-369.4,748.8h-251.2c-69.6,0-126.4,56.8-126.4,126.4v251.6c0,69.2,56.8,126,126.4,126H-369
			c69.6,0,126.4-56.8,126.4-126.4V875.2C-243,805.6-299.8,748.8-369.4,748.8z M-451,908.8h84v20h-84V908.8z M-490.2,1040.4
			c0,62.4-61.6,64.4-61.6,64.4h-56.8h-1.6H-651v-208h40.4h1.6h56.8c30.8,0,55.2,17.6,55.2,54.4s-29.6,38.8-29.6,38.8
			C-487.4,989.6-490.2,1040.4-490.2,1040.4z M-339.4,1036.8h-101.2c0,40,34.4,36.8,34.4,36.8c32.4,0,31.2-20.8,31.2-20.8h34.4
			c0,56-66.8,53.6-66.8,53.6c-80,0-74.8-78.8-74.8-78.8s0-79.2,74.8-79.2C-328.6,948-339.4,1036.8-339.4,1036.8z"/>
	</g>
</g>
<g>
	<g>
		<path class="st0" d="M-406.6,977.2c-30,0-34.4,31.6-34.4,31.6h64C-377,1008.8-376.6,977.2-406.6,977.2z"/>
	</g>
</g>
</svg>
